<svg width="12" height="9" viewBox="0 0 12 9" fill="none" xmlns="http://www.w3.org/2000/svg">
<path d="M11.2805 3.16146C11.2727 3.15245 11.266 3.14368 11.2568 3.13491L10.8498 2.74213C11.1873 2.66557 11.5507 2.38277 11.5507 2.09263C11.5507 1.75461 11.0816 1.63467 10.6812 1.63467C10.2626 1.63467 10.214 1.92149 10.2091 2.12416L9.15896 1.11175C8.94562 0.900542 8.54098 0.734375 8.23851 0.734375H6.19331H6.19283H4.14715C3.84492 0.734375 3.44052 0.900542 3.22694 1.11175L2.17708 2.12416C2.17163 1.92149 2.12303 1.63467 1.70489 1.63467C1.30405 1.63467 0.835176 1.75461 0.835176 2.09263C0.835176 2.38277 1.1988 2.66557 1.53635 2.74213L1.12935 3.13491C1.1201 3.14368 1.1137 3.15245 1.10564 3.16146C0.670194 3.53362 0.385742 4.22389 0.385742 4.72476V6.21316C0.385742 6.57441 0.528205 6.90224 0.758374 7.14663V7.72384C0.758374 8.06139 1.04093 8.33659 1.38844 8.33659H2.15029C2.4978 8.33659 2.78012 8.06186 2.78012 7.72384V7.57616H6.19283H6.19331H9.60578V7.72384C9.60578 8.06186 9.88786 8.33659 10.2358 8.33659H10.9975C11.3452 8.33659 11.6273 8.06139 11.6273 7.72384V7.14663C11.8577 6.90224 11.9999 6.57441 11.9999 6.21316V4.72476C12.0004 4.22389 11.7159 3.53362 11.2805 3.16146ZM3.61261 1.56166C3.76029 1.43863 4.01843 1.34524 4.14715 1.34524H6.19283H6.19331H8.23899C8.3677 1.34524 8.62584 1.43863 8.77352 1.56166L10.1505 2.89621H6.19331H6.19283H2.23587L3.61261 1.56166ZM0.85817 4.49957C0.85817 4.1331 1.14499 3.83561 1.49913 3.83561C1.85304 3.83561 3.00958 4.51451 3.00958 4.88097C3.00958 5.24744 1.85304 5.16258 1.49913 5.16258C1.14499 5.16258 0.85817 4.86628 0.85817 4.49957ZM2.78035 6.92358H2.65828H2.5362L1.81203 6.92476C1.61102 6.86218 1.46927 6.78917 1.369 6.71071C1.31827 6.67113 1.2794 6.62988 1.24905 6.58887C1.21848 6.54739 1.19619 6.50662 1.18173 6.46585C1.09166 6.21126 1.27774 5.9773 1.27774 5.9773H2.51368L3.33764 6.9231L2.78035 6.92358ZM7.97018 6.92405H6.19331H6.19283H4.41595C4.04546 6.92405 3.74465 6.62324 3.74465 6.25298H6.19283H6.19331H8.64149C8.64149 6.62372 8.34068 6.92405 7.97018 6.92405ZM8.12616 5.79501H6.19331H6.19283H4.25998C3.85701 5.79501 3.52989 5.29817 3.52989 4.68541H6.19283H6.19331H8.85625C8.85625 5.29841 8.52913 5.79501 8.12616 5.79501ZM11.2046 6.46632C11.1899 6.50709 11.1677 6.54786 11.1371 6.58911C11.107 6.63012 11.0681 6.67136 11.0171 6.71095C10.9171 6.78941 10.7751 6.86289 10.5741 6.925L9.84994 6.92381H9.72786H9.60578H9.04802L9.87246 5.97801H11.1082C11.1082 5.97777 11.2945 6.21126 11.2046 6.46632ZM10.887 5.16258C10.5333 5.16258 9.3768 5.24697 9.3768 4.88097C9.3768 4.51498 10.5333 3.83561 10.887 3.83561C11.2411 3.83561 11.528 4.1331 11.528 4.49957C11.528 4.8658 11.2411 5.16258 10.887 5.16258Z" fill="#6F6EFF"/>
</svg>
