<svg width="15" height="15" viewBox="0 0 15 15" fill="none" xmlns="http://www.w3.org/2000/svg">
<path d="M14.4819 3.95457C14.4788 3.32468 13.9637 2.81226 13.3339 2.81226H12.0337H12.0295H11.1784C11.4622 3.1413 11.6354 3.5682 11.6377 4.03463L11.6574 7.95115C11.6603 8.51699 11.261 8.98249 10.7391 9.09332V12.115C10.7391 12.4366 10.9998 12.6972 11.3213 12.6972C11.6428 12.6972 11.9035 12.4366 11.9035 12.115V7.4616H12.1549V12.115C12.1549 12.4366 12.4155 12.6972 12.7371 12.6972C13.0586 12.6972 13.3193 12.4366 13.3193 12.115C13.3193 4.40914 13.309 8.83185 13.3087 3.94731C13.3087 3.89115 13.3542 3.84563 13.4104 3.84563C13.4665 3.84563 13.512 3.89115 13.5121 3.94726C13.5121 3.95128 13.512 3.95529 13.5118 3.9595L13.5297 7.52372C13.531 7.79084 13.748 8.00644 14.0148 8.00644C14.0156 8.00644 14.0164 8.00644 14.0173 8.00644C14.2852 8.00514 14.5013 7.78682 14.5 7.51888L14.4819 3.95457Z" fill="#6F6EFF"/>
<path d="M12.0355 2.49148C12.5893 2.49148 13.041 2.04204 13.041 1.48598C13.041 0.93064 12.5909 0.480469 12.0355 0.480469C11.4802 0.480469 11.03 0.93064 11.03 1.48598C11.0301 2.04296 11.4825 2.49148 12.0355 2.49148Z" fill="#6F6EFF"/>
<path d="M11.0281 7.954L11.0084 4.03747C11.005 3.34533 10.439 2.78226 9.74689 2.78226C9.64274 2.78226 6.92924 2.78206 6.87061 2.78264C7.19109 3.13399 7.38792 3.60002 7.39048 4.11057L7.41167 8.33112C7.41375 8.74144 7.20903 9.10531 6.89566 9.3242V13.0044C6.89566 13.3577 7.18209 13.6441 7.53537 13.6441C7.88864 13.6441 8.17507 13.3577 8.17507 13.0044V7.89111H8.45128V13.0045C8.45128 13.3577 8.73766 13.6442 9.09098 13.6442C9.44431 13.6442 9.73069 13.3578 9.73069 13.0045C9.73069 4.54231 9.71932 9.39057 9.71908 4.03989C9.71908 3.97826 9.769 3.92834 9.83063 3.92829C9.89226 3.92829 9.94223 3.97821 9.94223 4.03984C9.94223 4.04086 9.94223 4.04188 9.94223 4.04284L9.96192 7.95932C9.96341 8.25286 10.2018 8.48974 10.495 8.48974C10.4959 8.48979 10.4968 8.48979 10.4977 8.48979C10.7922 8.48829 11.0296 8.24841 11.0281 7.954Z" fill="#6F6EFF"/>
<path d="M5.4024 2.76099C5.08265 2.76099 2.63869 2.76099 2.31821 2.76099C1.57232 2.76099 0.962468 3.36779 0.958695 4.11372L0.937507 8.33428C0.935959 8.64402 1.1816 8.90171 1.49541 8.91081C1.5 8.91095 1.5045 8.91158 1.5091 8.91163C1.51007 8.91163 1.51103 8.91163 1.51205 8.91163C1.82798 8.91163 2.0849 8.65631 2.08649 8.34004L2.10768 4.11948V4.11943C2.10797 4.05829 2.15775 4.00895 2.21889 4.00909C2.28004 4.00924 2.32953 4.05892 2.32953 4.12001L2.32982 13.7768C2.32982 14.1575 2.63844 14.4662 3.0192 14.4662C3.4016 14.4662 3.70858 14.1555 3.70858 13.7768V8.26651H4.00623V13.7769C4.00623 14.1559 4.31311 14.4663 4.69561 14.4663C5.07636 14.4663 5.38499 14.1576 5.38499 13.7769C5.38499 11.3115 5.37314 6.70112 5.37251 4.12016C5.37246 4.05389 5.42611 4.00009 5.49238 3.9999C5.55865 3.99971 5.61254 4.05321 5.61288 4.11953L5.63412 8.34009C5.63571 8.65636 5.89253 8.91168 6.20856 8.91168C6.20948 8.91168 6.21054 8.91168 6.21151 8.91168C6.52812 8.91008 6.7847 8.65225 6.7831 8.33433L6.76191 4.11377C6.75814 3.37229 6.15182 2.76099 5.4024 2.76099Z" fill="#6F6EFF"/>
<path d="M3.86507 2.38127C4.52292 2.38127 5.05571 1.84678 5.05571 1.19064C5.05576 0.535116 4.52403 0 3.86507 0C3.21386 0 2.67444 0.527425 2.67444 1.19068C2.67444 1.84998 3.21028 2.38127 3.86507 2.38127Z" fill="#6F6EFF"/>
<path d="M8.32081 2.4302C8.9295 2.4302 9.42568 1.93605 9.42568 1.32533C9.42573 0.715086 8.93105 0.220459 8.32081 0.220459C7.71062 0.220459 7.21594 0.715134 7.21594 1.32533C7.21594 1.93533 7.71134 2.4302 8.32081 2.4302Z" fill="#6F6EFF"/>
</svg>
