<svg width="61" height="45" viewBox="0 0 61 45" fill="none" xmlns="http://www.w3.org/2000/svg">
<path d="M40.4794 37.6487L34.2518 31.7454H5.90155V5.90314H44.1947V9.4651L46.2683 7.39078C47.2272 6.43088 48.5057 5.90106 49.8626 5.90106C49.9416 5.90106 50.0165 5.91993 50.0954 5.92385V5.02729C50.0954 2.25627 47.8427 0 45.0704 0H5.02509C2.25554 0 0 2.25627 0 5.02729V32.6217C0 35.3927 2.25554 37.6488 5.02509 37.6488C25.3153 37.6488 40.4794 37.6487 40.4794 37.6487Z" fill="#5E5E7B"/>
<path d="M59.6685 19.167L55.1679 14.6689L39.0923 30.7494L43.5886 35.2448C43.811 35.4691 44.1056 35.5813 44.3993 35.5813C44.6927 35.5813 44.9854 35.4691 45.2085 35.2448L59.6685 20.7881C59.8832 20.574 60.0033 20.2832 60.0033 19.9771C60.0034 19.6734 59.8832 19.3815 59.6685 19.167Z" fill="#5E5E7B"/>
<path d="M49.0517 10.173L34.5939 24.6288C34.3783 24.8438 34.2565 25.1348 34.2565 25.4408C34.2565 25.7446 34.3783 26.0355 34.5939 26.2507L36.4204 28.0785L52.5002 11.9998L50.6713 10.173C50.4501 9.94817 50.1564 9.83655 49.8621 9.83655C49.5684 9.83655 49.2746 9.94817 49.0517 10.173Z" fill="#5E5E7B"/>
<path d="M30.3695 39.4279H19.3297V41.005H30.3695V39.4279Z" fill="#5E5E7B"/>
<path d="M35.101 42.5823H14.5985C13.7275 42.5823 13.0214 43.2884 13.0214 44.1594H36.6782C36.6782 43.2883 35.9721 42.5823 35.101 42.5823Z" fill="#5E5E7B"/>
</svg>
