<svg width="39" height="39" viewBox="0 0 39 39" fill="none" xmlns="http://www.w3.org/2000/svg">
<path d="M0 19.5C0 30.2758 8.73505 39 19.5 39C30.2649 39 39 30.265 39 19.5C39 12.7301 35.5556 6.76993 30.3189 3.27159L29.4767 31.1827C29.4767 31.2043 29.4767 31.2259 29.4767 31.2475C29.4767 32.6296 24.1968 33.7525 17.6752 33.7525C11.1537 33.7525 5.87375 32.6296 5.87375 31.2475C5.87375 31.2259 5.87375 31.2043 5.87375 31.1827V31.1719C5.89535 30.9884 6.01412 30.8156 6.21927 30.6429L25.4277 0.917774C23.5598 0.32392 21.5731 0 19.5 0C8.73505 0 0 8.72425 0 19.5Z" fill="#5E5E7B"/>
<path d="M27.1813 22.5962C27.1782 21.9831 26.6769 21.4844 26.0639 21.4844H24.7984H24.7944H23.966C24.2422 21.8046 24.4107 22.2201 24.413 22.6741L24.4322 26.486C24.435 27.0367 24.0464 27.4898 23.5385 27.5977V30.5386C23.5385 30.8516 23.7922 31.1053 24.1051 31.1053C24.418 31.1053 24.6717 30.8516 24.6717 30.5386V26.0095H24.9164V30.5386C24.9164 30.8516 25.1701 31.1053 25.483 31.1053C25.796 31.1053 26.0497 30.8516 26.0497 30.5386C26.0497 23.0386 26.0396 27.3432 26.0394 22.5891C26.0394 22.5344 26.0837 22.4901 26.1383 22.4901C26.1929 22.4901 26.2373 22.5344 26.2373 22.5891C26.2373 22.593 26.2372 22.5969 26.2371 22.601L26.2545 26.07C26.2558 26.33 26.4669 26.5398 26.7266 26.5398C26.7274 26.5398 26.7282 26.5398 26.729 26.5398C26.9898 26.5385 27.2002 26.3261 27.1989 26.0653L27.1813 22.5962Z" fill="#5E5E7B"/>
<path d="M24.8004 21.1721C25.3394 21.1721 25.7791 20.7347 25.7791 20.1935C25.7791 19.653 25.3409 19.2148 24.8004 19.2148C24.2599 19.2148 23.8218 19.653 23.8218 20.1935C23.8218 20.7356 24.2621 21.1721 24.8004 21.1721Z" fill="#5E5E7B"/>
<path d="M23.8202 26.4892L23.801 22.6773C23.7976 22.0036 23.2468 21.4556 22.5731 21.4556C22.4718 21.4556 19.8307 21.4554 19.7737 21.456C20.0856 21.7979 20.2772 22.2515 20.2797 22.7484L20.3003 26.8562C20.3023 27.2556 20.1031 27.6098 19.7981 27.8228V31.4047C19.7981 31.7486 20.0768 32.0273 20.4207 32.0273C20.7645 32.0273 21.0433 31.7486 21.0433 31.4047V26.428H21.3121V31.4048C21.3121 31.7486 21.5909 32.0274 21.9348 32.0274C22.2786 32.0274 22.5574 31.7486 22.5574 31.4048C22.5574 23.1686 22.5463 27.8874 22.5461 22.6796C22.5461 22.6197 22.5947 22.5711 22.6546 22.571C22.7146 22.571 22.7633 22.6196 22.7633 22.6796C22.7633 22.6806 22.7633 22.6816 22.7633 22.6825L22.7824 26.4944C22.7839 26.7801 23.0159 27.0106 23.3012 27.0106C23.3021 27.0107 23.303 27.0107 23.3039 27.0107C23.5905 27.0092 23.8216 26.7757 23.8202 26.4892Z" fill="#5E5E7B"/>
<path d="M18.3444 21.4346C18.0332 21.4346 15.6545 21.4346 15.3426 21.4346C14.6166 21.4346 14.0231 22.0252 14.0194 22.7512L13.9988 26.859C13.9973 27.1605 14.2364 27.4113 14.5418 27.4201C14.5463 27.4203 14.5506 27.4209 14.5551 27.4209C14.5561 27.4209 14.557 27.4209 14.558 27.4209C14.8655 27.4209 15.1155 27.1724 15.1171 26.8646L15.1377 22.7568V22.7567C15.138 22.6972 15.1864 22.6492 15.2459 22.6493C15.3055 22.6495 15.3536 22.6978 15.3536 22.7573L15.3539 32.1562C15.3539 32.5267 15.6543 32.8271 16.0249 32.8271C16.3971 32.8271 16.6958 32.5248 16.6958 32.1562V26.793H16.9855V32.1562C16.9855 32.5251 17.2842 32.8272 17.6565 32.8272C18.0271 32.8272 18.3275 32.5268 18.3275 32.1562C18.3275 29.7567 18.3159 25.2695 18.3153 22.7574C18.3153 22.6929 18.3675 22.6406 18.432 22.6404C18.4965 22.6402 18.5489 22.6923 18.5493 22.7568L18.5699 26.8646C18.5715 27.1725 18.8215 27.421 19.129 27.421C19.1299 27.421 19.131 27.421 19.1319 27.421C19.4401 27.4194 19.6898 27.1685 19.6882 26.859L19.6676 22.7512C19.6639 22.0295 19.0738 21.4346 18.3444 21.4346Z" fill="#5E5E7B"/>
<path d="M16.8482 21.0652C17.4884 21.0652 18.007 20.545 18.007 19.9064C18.007 19.2684 17.4895 18.7476 16.8482 18.7476C16.2143 18.7476 15.6893 19.2609 15.6893 19.9064C15.6893 20.5481 16.2109 21.0652 16.8482 21.0652Z" fill="#5E5E7B"/>
<path d="M21.1849 21.1129C21.7773 21.1129 22.2602 20.6319 22.2602 20.0375C22.2603 19.4436 21.7788 18.9622 21.1849 18.9622C20.591 18.9622 20.1095 19.4436 20.1095 20.0375C20.1095 20.6312 20.5917 21.1129 21.1849 21.1129Z" fill="#5E5E7B"/>
</svg>
