<svg width="96" height="97" viewBox="0 0 96 97" fill="none" xmlns="http://www.w3.org/2000/svg">
<path d="M0 48.4492C0 74.9588 21.4904 96.4492 48 96.4492C74.5096 96.4492 96 74.9588 96 48.4492C96 31.7945 87.5172 17.1218 74.637 8.51274L72.5443 77.1968H72.5348C72.5419 77.2504 72.5443 77.3052 72.5443 77.3588C72.5443 80.7641 59.5391 83.5249 43.4966 83.5249C27.4541 83.5249 14.4488 80.7641 14.4488 77.3588C14.4488 77.304 14.4524 77.2504 14.4584 77.1968H14.4488L14.4631 77.1754C14.5251 76.7252 14.8157 76.2868 15.31 75.8652L62.581 2.7051C57.9823 1.24009 53.0835 0.449219 48 0.449219C21.4904 0.449219 0 21.9396 0 48.4492Z" fill="#6F6EFF"/>
</svg>
