<svg width="11" height="11" viewBox="0 0 11 11" fill="none" xmlns="http://www.w3.org/2000/svg">
<path d="M10.229 7.82597C10.1822 7.76869 10.1185 7.72737 10.0467 7.70783C9.97496 7.68829 9.89884 7.69151 9.82903 7.71703C9.42087 7.85972 8.99087 7.93143 8.55803 7.92897C7.72267 7.93053 6.90887 7.6664 6.23647 7.17546C5.56407 6.68453 5.0686 5.99273 4.82301 5.20194C4.57743 4.41115 4.59471 3.56316 4.87232 2.78284C5.14992 2.00251 5.67317 1.33108 6.36503 0.867413C6.42422 0.827623 6.4699 0.771047 6.49607 0.705103C6.52224 0.639159 6.52768 0.566923 6.51168 0.497864C6.49568 0.428805 6.45898 0.366147 6.4064 0.318099C6.35383 0.270051 6.28782 0.238855 6.21703 0.228604C6.05136 0.206035 5.88425 0.195443 5.71703 0.196912C4.78905 0.196977 3.87722 0.437309 3.07196 0.894071C2.2667 1.35083 1.596 2.00816 1.12638 2.80084C0.656752 3.59353 0.404523 4.49404 0.394707 5.41305C0.384891 6.33207 0.617828 7.23766 1.07042 8.04001C1.523 8.84235 2.17951 9.51358 2.97484 9.98711C3.77016 10.4606 4.67666 10.72 5.60442 10.7395C6.53219 10.759 7.44899 10.538 8.26388 10.0983C9.07878 9.65865 9.76347 9.01563 10.25 8.23303C10.2894 8.17133 10.3085 8.09908 10.3047 8.0262C10.301 7.95332 10.2745 7.88338 10.229 7.82597Z" fill="#5E5E7B"/>
</svg>
