<svg width="45" height="45" viewBox="0 0 45 45" fill="none" xmlns="http://www.w3.org/2000/svg">
<path d="M44.1668 33.3842H0.00744157V35.3193C-0.0992481 36.7408 0.953591 37.9853 2.37316 38.1156H41.8012C43.2207 37.9853 44.2735 36.7409 44.1668 35.3193V33.3842Z" fill="#5E5E7B"/>
<path d="M8.68155 20.8459C6.84704 21.2232 5.52967 22.837 5.52734 24.7099C5.53114 25.1544 5.61109 25.5951 5.76392 26.0126L8.68163 24.2636V20.8459H8.68155Z" fill="#5E5E7B"/>
<path d="M6.57605 27.3659C7.87427 28.8031 10.0298 29.0716 11.641 27.9967L9.34791 25.7036L6.57605 27.3659Z" fill="#5E5E7B"/>
<path d="M27.607 39.6924H16.5671V41.2695H27.607V39.6924Z" fill="#5E5E7B"/>
<path d="M10.2587 20.8459V24.3827L12.756 26.88C13.4805 25.7887 13.6145 24.4085 13.1136 23.1981C12.6127 21.9879 11.5425 21.1061 10.2587 20.8459Z" fill="#5E5E7B"/>
<path d="M32.3383 42.8469H11.8358C10.9648 42.8469 10.2587 43.553 10.2587 44.4241H33.9155C33.9155 43.553 33.2094 42.8469 32.3383 42.8469Z" fill="#5E5E7B"/>
<path d="M39.4354 10.5157H37.8583V12.8815H39.4354V10.5157Z" fill="#5E5E7B"/>
<path d="M0.008284 31.807H44.1676V3.06006C44.2743 1.63876 43.2214 0.394453 41.802 0.264648H2.374C0.954605 0.394453 -0.0983195 1.63868 0.008284 3.06006V31.807ZM9.47107 30.2299C7.23843 30.2299 5.22573 28.885 4.37135 26.8224C3.51697 24.7597 3.98927 22.3855 5.56788 20.8068C7.14658 19.2281 9.52075 18.7559 11.5835 19.6102C13.6462 20.4646 14.991 22.4774 14.991 24.71C14.9875 27.757 12.5181 30.2264 9.47107 30.2299ZM14.991 16.5342C14.9832 17.1365 14.4895 17.6191 13.887 17.6129H5.05513C4.45311 17.6203 3.95891 17.1385 3.95115 16.5365V10.5158C3.95115 10.0804 4.30416 9.72726 4.73972 9.72726C5.17519 9.72726 5.52829 10.0803 5.52829 10.5158V16.0357H13.4139V10.5158C13.4139 10.0804 13.7669 9.72726 14.2025 9.72726C14.638 9.72726 14.9911 10.0803 14.9911 10.5158V16.5342H14.991ZM20.5109 2.63028C20.5109 2.19481 20.8639 1.84171 21.2995 1.84171C21.735 1.84171 22.0881 2.19472 22.0881 2.63028V12.093C22.0881 12.5284 22.4411 12.8815 22.8766 12.8815H23.6652V4.20742C23.6652 3.3364 24.3713 2.63028 25.2423 2.63028H26.8195C27.6905 2.63028 28.3966 3.3364 28.3966 4.20742V12.8815H29.9738V7.93725C29.9746 7.18421 30.5849 6.57392 31.338 6.57305H33.3409C34.094 6.57392 34.7043 7.18421 34.7051 7.93725V12.8815H36.2823V10.1823C36.2827 9.49568 36.8392 8.9392 37.5258 8.93877H39.7701C40.4567 8.9392 41.0132 9.49568 41.0136 10.1823V12.8815C41.4491 12.8815 41.8022 13.2346 41.8022 13.6701C41.8022 14.1057 41.4492 14.4587 41.0136 14.4587H22.8765C21.57 14.4587 20.5108 13.3996 20.5108 12.093V2.63028H20.5109ZM20.5109 18.4015C20.5109 17.966 20.8639 17.6129 21.2995 17.6129C21.735 17.6129 22.0881 17.9659 22.0881 18.4015V24.3835L23.5697 22.9018C24.506 22.0083 25.9793 22.0083 26.9156 22.9018L27.839 23.826C28.1469 24.1338 28.6461 24.1338 28.954 23.826L32.2438 20.5361C33.1799 19.6428 34.6529 19.6428 35.5889 20.5361L36.5131 21.4603C36.821 21.7681 37.3202 21.7681 37.6281 21.4603L40.4558 18.6333C40.7652 18.3345 41.2571 18.3388 41.5613 18.6429C41.8655 18.9471 41.8697 19.4389 41.5709 19.7483L38.7431 22.5761C37.8183 23.497 36.3229 23.497 35.398 22.5761L34.4739 21.6511C34.1624 21.352 33.6704 21.352 33.3589 21.6511L30.069 24.9409C29.1452 25.8645 27.6477 25.8645 26.7239 24.9409L25.7998 24.0168C25.4882 23.7178 24.9963 23.7178 24.6847 24.0168L22.0881 26.6135V27.8642C22.0881 28.2996 22.4411 28.6527 22.8766 28.6527H41.0135C41.449 28.6527 41.8021 29.0058 41.8021 29.4413C41.8021 29.8768 41.4491 30.2299 41.0135 30.2299H22.8765C21.57 30.2299 20.5108 29.1707 20.5108 27.8642V18.4015H20.5109ZM2.63654 7.56267L3.95106 6.38615V4.60167C3.95106 4.1662 4.30408 3.81309 4.73963 3.81309C5.1751 3.81309 5.5282 4.16611 5.5282 4.60167V4.97383L8.70216 2.13504C9.13625 1.75244 9.7857 1.74735 10.2257 2.12322L16.3054 7.56431C16.6289 7.85463 16.6564 8.35194 16.3669 8.67614C16.0764 9.00061 15.5779 9.02813 15.2534 8.73764L9.47089 3.56151L3.68852 8.73764C3.36353 9.02321 2.86907 8.99363 2.58048 8.67132C2.29189 8.349 2.3169 7.85428 2.63654 7.56267Z" fill="#5E5E7B"/>
<path d="M33.1271 8.15027H31.5499V12.8816H33.1271V8.15027Z" fill="#5E5E7B"/>
<path d="M26.8185 4.2074H25.2413V12.8815H26.8185V4.2074Z" fill="#5E5E7B"/>
</svg>
