<svg width="15" height="15" viewBox="0 0 15 15" fill="none" xmlns="http://www.w3.org/2000/svg">
<path d="M14.0868 6.05262H11.4198V4.18039C11.4196 3.9951 11.3679 3.81402 11.2713 3.65999C11.1747 3.50597 11.0374 3.3859 10.8769 3.31493C10.7164 3.24397 10.5397 3.22528 10.3692 3.26124C10.1987 3.29719 10.042 3.38617 9.91889 3.51695L6.40309 7.26672C6.32121 7.35375 6.25624 7.45714 6.21191 7.57099C6.16758 7.68484 6.14477 7.8069 6.14477 7.93016C6.14477 8.05343 6.16758 8.17548 6.21191 8.28933C6.25624 8.40318 6.32121 8.50658 6.40309 8.5936L8.41923 10.7432L5.96252 13.3611C5.88081 13.4482 5.81598 13.5516 5.77176 13.6655C5.72753 13.7793 5.70477 13.9013 5.70477 14.0245C5.70477 14.1477 5.72753 14.2697 5.77176 14.3836C5.81598 14.4974 5.88081 14.6008 5.96252 14.688C6.04424 14.7751 6.14125 14.8442 6.24802 14.8914C6.35479 14.9385 6.46922 14.9628 6.58479 14.9628C6.70036 14.9628 6.81479 14.9385 6.92156 14.8914C7.02833 14.8442 7.12534 14.7751 7.20706 14.688L10.2848 11.4066C10.3667 11.3196 10.4316 11.2162 10.476 11.1023C10.5203 10.9885 10.5431 10.8664 10.5431 10.7432C10.5431 10.6199 10.5203 10.4978 10.476 10.384C10.4316 10.2701 10.3667 10.1667 10.2848 10.0797L8.26865 7.93016L9.66252 6.43609V6.98542C9.66252 7.23387 9.75509 7.47214 9.91987 7.64782C10.0846 7.8235 10.3081 7.9222 10.5412 7.9222H14.0868C14.2051 7.92695 14.323 7.90621 14.4336 7.86123C14.5441 7.81626 14.6451 7.74797 14.7303 7.66045C14.8155 7.57294 14.8833 7.46799 14.9296 7.35189C14.9759 7.23579 14.9998 7.11092 14.9998 6.98476C14.9998 6.8586 14.9759 6.73373 14.9296 6.61763C14.8833 6.50153 14.8155 6.39658 14.7303 6.30906C14.6451 6.22154 14.5441 6.15325 14.4336 6.10828C14.323 6.0633 14.2051 6.04257 14.0868 6.04732V6.05262Z" fill="#6F6EFF"/>
<path d="M8.17173 1.28919C8.00251 1.16939 7.79963 1.11569 7.59751 1.13722C7.39539 1.15874 7.20649 1.25416 7.06284 1.40728L4.64472 3.98408C4.563 4.0712 4.49818 4.17464 4.45395 4.28847C4.40973 4.4023 4.38696 4.52431 4.38696 4.64752C4.38696 4.77073 4.40973 4.89274 4.45395 5.00657C4.49818 5.1204 4.563 5.22383 4.64472 5.31096C4.72643 5.39808 4.82345 5.46719 4.93021 5.51435C5.03698 5.5615 5.15142 5.58576 5.26698 5.58576C5.38255 5.58576 5.49698 5.5615 5.60375 5.51435C5.71052 5.46719 5.80753 5.39808 5.88925 5.31096L7.79712 3.27685L8.44054 3.77045L9.29927 2.85491C9.44377 2.70298 9.61229 2.57945 9.79709 2.49002L8.17173 1.28919Z" fill="#6F6EFF"/>
<path d="M5.78105 9.25319C5.56361 9.01892 5.40855 8.7272 5.33177 8.40796L0.688414 13.3586C0.523379 13.5345 0.430664 13.7732 0.430664 14.022C0.430664 14.2708 0.523379 14.5095 0.688414 14.6854C0.85345 14.8614 1.07729 14.9602 1.31068 14.9602C1.54408 14.9602 1.76791 14.8614 1.93295 14.6854L6.40456 9.91795L5.78105 9.25319Z" fill="#6F6EFF"/>
<path d="M11.8606 3.24147C12.5892 3.24147 13.1798 2.61159 13.1798 1.8346C13.1798 1.05761 12.5892 0.427734 11.8606 0.427734C11.132 0.427734 10.5414 1.05761 10.5414 1.8346C10.5414 2.61159 11.132 3.24147 11.8606 3.24147Z" fill="#6F6EFF"/>
</svg>
