<svg width="39" height="39" viewBox="0 0 39 39" fill="none" xmlns="http://www.w3.org/2000/svg">
<path d="M0 19.5C0 30.2757 8.73505 39 19.5 39C30.2649 39 39 30.265 39 19.5C39 12.7301 35.5556 6.76993 30.3189 3.27159L29.4767 31.1827C29.4767 31.2043 29.4767 31.2259 29.4767 31.2475C29.4767 32.6296 24.1968 33.7525 17.6752 33.7525C11.1537 33.7525 5.87375 32.6296 5.87375 31.2475C5.87375 31.2259 5.87375 31.2043 5.87375 31.1827V31.1719C5.89535 30.9884 6.01412 30.8156 6.21927 30.6429L25.4277 0.917774C23.5598 0.32392 21.5731 0 19.5 0C8.73505 0 0 8.72425 0 19.5Z" fill="#5E5E7B"/>
<path d="M25.1466 24.1322H22.836V22.6098C22.836 21.9404 22.0154 21.5841 21.5295 22.0699L18.4739 25.1256C18.1716 25.4279 18.1716 25.903 18.4739 26.2053L20.223 27.9545L18.096 30.0816C17.7936 30.3839 17.7936 30.859 18.096 31.1613C18.3983 31.4636 18.8734 31.4636 19.1757 31.1613L21.8426 28.4944C22.145 28.192 22.145 27.717 21.8426 27.4146L20.0935 25.6655L21.3028 24.4562V24.8988C21.3028 25.3199 21.6483 25.6655 22.0694 25.6655H25.1466C25.5677 25.6655 25.9132 25.3199 25.9132 24.8988C25.9132 24.4778 25.5677 24.1322 25.1466 24.1322Z" fill="#5E5E7B"/>
<path d="M20.0181 20.2557C19.7158 20.0506 19.3163 20.0938 19.0571 20.3529L16.9517 22.4476C16.6493 22.7499 16.6493 23.225 16.9517 23.5273C17.254 23.8297 17.7291 23.8297 18.0314 23.5273L19.6834 21.8753L20.2449 22.2748L20.9899 21.5298C21.1194 21.4003 21.2598 21.3031 21.4218 21.2383L20.0181 20.2557Z" fill="#5E5E7B"/>
<path d="M17.9452 26.734C17.7509 26.5397 17.6213 26.3021 17.5565 26.043L13.5291 30.0704C13.2268 30.3727 13.2268 30.8478 13.5291 31.1501C13.8314 31.4525 14.3065 31.4525 14.6089 31.1501L18.4851 27.2739L17.9452 26.734Z" fill="#5E5E7B"/>
<path d="M23.2136 21.8431C23.8457 21.8431 24.3581 21.3307 24.3581 20.6986C24.3581 20.0665 23.8457 19.5541 23.2136 19.5541C22.5815 19.5541 22.0691 20.0665 22.0691 20.6986C22.0691 21.3307 22.5815 21.8431 23.2136 21.8431Z" fill="#5E5E7B"/>
</svg>
