<svg width="13" height="13" viewBox="0 0 13 13" fill="none" xmlns="http://www.w3.org/2000/svg">
<path d="M11.991 7.66427L10.775 6.00429L11.991 4.34431C12.0115 4.31601 12.0247 4.28314 12.0294 4.2486C12.0341 4.21407 12.0302 4.17891 12.018 4.14623C12.0096 4.11403 11.9926 4.08464 11.9689 4.06113C11.9452 4.03761 11.9155 4.02083 11.883 4.01251L9.91 3.36971V1.32149C9.91066 1.28769 9.903 1.25424 9.88766 1.22404C9.87233 1.19384 9.84978 1.16779 9.82199 1.14816C9.79404 1.12654 9.76079 1.11267 9.72565 1.10798C9.6905 1.10328 9.65475 1.10792 9.62201 1.12143L7.64899 1.75035L6.43299 0.0903779C6.4113 0.065112 6.38434 0.0448116 6.35395 0.0308935C6.32356 0.0169753 6.29048 0.00976562 6.257 0.00976562C6.22351 0.00976562 6.19043 0.0169753 6.16004 0.0308935C6.12965 0.0448116 6.10269 0.065112 6.081 0.0903779L4.865 1.75035L2.89201 1.12143C2.85927 1.10792 2.82349 1.10328 2.78834 1.10798C2.7532 1.11267 2.71995 1.12654 2.692 1.14816C2.66446 1.16796 2.64218 1.19407 2.62703 1.22425C2.61188 1.25444 2.60434 1.28779 2.60502 1.32149V3.36971L0.632006 4.01251C0.599452 4.02073 0.569733 4.03749 0.545977 4.06102C0.522221 4.08455 0.505328 4.11399 0.497027 4.14623C0.484641 4.17888 0.480627 4.21406 0.485339 4.24863C0.490051 4.2832 0.50332 4.31608 0.524004 4.34431L1.74001 6.00429L0.524004 7.66427C0.502985 7.69235 0.489511 7.72522 0.484789 7.75986C0.480068 7.7945 0.484277 7.82977 0.497027 7.86236C0.505328 7.8946 0.522221 7.92404 0.545977 7.94756C0.569733 7.97109 0.599452 7.98784 0.632006 7.99606L2.60502 8.63886V10.6871C2.60426 10.7209 2.61176 10.7545 2.62691 10.7848C2.64205 10.8152 2.66438 10.8415 2.692 10.8614C2.71995 10.883 2.7532 10.8969 2.78834 10.9016C2.82349 10.9063 2.85927 10.9016 2.89201 10.8881L4.865 10.2592L6.081 11.9192C6.10149 11.9463 6.12806 11.9682 6.15861 11.9833C6.18915 11.9985 6.22284 12.0063 6.257 12.0063C6.29115 12.0063 6.32484 11.9985 6.35538 11.9833C6.38593 11.9682 6.4125 11.9463 6.43299 11.9192L7.64899 10.2592L9.62201 10.8881C9.65475 10.9016 9.6905 10.9063 9.72565 10.9016C9.76079 10.8969 9.79404 10.883 9.82199 10.8614C9.84986 10.8416 9.87242 10.8154 9.88776 10.785C9.90309 10.7547 9.91074 10.721 9.91 10.6871V8.63192L11.883 7.98912C11.9155 7.9809 11.9453 7.96416 11.969 7.94063C11.9928 7.9171 12.0097 7.88766 12.018 7.85542C12.0306 7.8228 12.0347 7.78757 12.03 7.75297C12.0252 7.71837 12.0118 7.68549 11.991 7.65734V7.66427Z" fill="#5E5E7B"/>
</svg>
