<svg width="41" height="46" viewBox="0 0 41 46" fill="none" xmlns="http://www.w3.org/2000/svg">
<path d="M5.62762 45.02H26.5298V43.4122H24.9219C23.1459 43.4122 21.7062 41.9725 21.7062 40.1965V20.0982C21.7062 18.3222 23.1459 16.8825 24.9219 16.8825H26.5298V15.2747H5.62762V45.02ZM12.863 20.0982C12.863 19.6542 13.2229 19.2943 13.6669 19.2943H18.4905C18.9345 19.2943 19.2944 19.6542 19.2944 20.0982V21.7061C19.2944 22.1501 18.9345 22.51 18.4905 22.51H13.6669C13.2229 22.51 12.863 22.1501 12.863 21.7061V20.0982ZM7.23548 17.6864C7.23548 17.2424 7.59541 16.8825 8.03941 16.8825C8.48341 16.8825 8.84334 17.2424 8.84334 17.6864V19.2943C8.84334 19.7383 8.48341 20.0982 8.03941 20.0982C7.59541 20.0982 7.23548 19.7383 7.23548 19.2943V17.6864ZM7.23548 22.51C7.23548 22.066 7.59541 21.7061 8.03941 21.7061C8.48341 21.7061 8.84334 22.066 8.84334 22.51V42.6082C8.84334 43.0522 8.48341 43.4122 8.03941 43.4122C7.59541 43.4122 7.23548 43.0522 7.23548 42.6082V22.51Z" fill="#5E5E7B"/>
<path d="M0.803929 10.6215V40.334C0.803761 40.5474 0.888507 40.7522 1.03948 40.9031L4.01965 43.8833V14.6147L0 3.70374V6.06005C0 7.95893 0.803929 8.40029 0.803929 10.6215Z" fill="#5E5E7B"/>
<path d="M27.7357 34.5688C28.4017 34.5688 28.9416 34.0289 28.9416 33.3629C28.9416 32.6969 28.4017 32.157 27.7357 32.157C27.0697 32.157 26.5298 32.6969 26.5298 33.3629C26.5298 34.0289 27.0697 34.5688 27.7357 34.5688Z" fill="#5E5E7B"/>
<path d="M21.5685 10.4509L18.9035 3.21558H4.96094L7.62596 10.4509H21.5685ZM14.2351 4.25506C14.5489 4.56899 14.5489 5.07788 14.2351 5.39181L10.2154 9.41146C9.89997 9.71613 9.39856 9.71177 9.08846 9.40167C8.77835 9.09156 8.774 8.59015 9.07866 8.2747L13.0983 4.25506C13.4122 3.94122 13.9211 3.94122 14.2351 4.25506ZM7.4708 5.86292L9.07866 4.25506C9.28051 4.04607 9.57941 3.96226 9.86049 4.03583C10.1416 4.1094 10.3611 4.32891 10.4346 4.60999C10.5082 4.89106 10.4244 5.18997 10.2154 5.39181L8.60756 6.99967C8.29212 7.30434 7.7907 7.29998 7.4806 6.98988C7.17049 6.67978 7.16614 6.17836 7.4708 5.86292Z" fill="#5E5E7B"/>
<path d="M26.1798 13.6668L21.1432 0H0.349548L5.38616 13.6668H26.1798ZM3.80725 1.60786H19.4638C19.8004 1.60794 20.1014 1.81777 20.2179 2.13363L23.4762 10.9768C23.5671 11.2235 23.5318 11.499 23.3815 11.7146C23.2312 11.9303 22.985 12.0589 22.7221 12.0589H7.06557C6.72892 12.0589 6.42797 11.849 6.31149 11.5332L3.05477 2.68995C2.96392 2.44359 2.9991 2.16838 3.14901 1.9528C3.29893 1.73723 3.54467 1.60844 3.80725 1.60786Z" fill="#5E5E7B"/>
<path d="M23.3138 20.0982V40.1964C23.3138 41.0844 24.0337 41.8043 24.9217 41.8043H32.1571V18.4904H24.9217C24.0337 18.4904 23.3138 19.2102 23.3138 20.0982ZM27.7355 30.5493C28.8776 30.5517 29.905 31.2444 30.3356 32.3023C30.7662 33.3603 30.5145 34.5735 29.6986 35.3729C30.5188 36.1716 30.7732 37.3876 30.3421 38.4482C29.911 39.5087 28.8803 40.2023 27.7355 40.2023C26.5906 40.2023 25.56 39.5087 25.1288 38.4482C24.6977 37.3876 24.9521 36.1716 25.7723 35.3729C24.9564 34.5735 24.7047 33.3603 25.1353 32.3023C25.5659 31.2444 26.5933 30.5517 27.7355 30.5493Z" fill="#5E5E7B"/>
<path d="M27.7357 38.5888C28.4017 38.5888 28.9416 38.0489 28.9416 37.3829C28.9416 36.7169 28.4017 36.177 27.7357 36.177C27.0697 36.177 26.5298 36.7169 26.5298 37.3829C26.5298 38.0489 27.0697 38.5888 27.7357 38.5888Z" fill="#5E5E7B"/>
<path d="M33.7651 18.4904H36.1769V41.8043H33.7651V18.4904Z" fill="#5E5E7B"/>
<path d="M40.1963 40.1964V20.0982C40.1963 19.2102 39.4765 18.4904 38.5885 18.4904H37.7845V41.8043H38.5885C39.4765 41.8043 40.1963 41.0844 40.1963 40.1964Z" fill="#5E5E7B"/>
</svg>
