<svg width="31" height="47" viewBox="0 0 31 47" fill="none" xmlns="http://www.w3.org/2000/svg">
<path d="M24.4814 5.09951C24.4814 4.09964 25.295 3.28607 26.2948 3.28607V0.565918H9.9739C7.47405 0.565918 5.44031 2.59966 5.44031 5.09951V17.0682H24.4814V5.09951Z" fill="#5E5E7B"/>
<path d="M29.015 1.4751V6.00621C28.0133 6.00621 27.2015 6.818 27.2015 7.81964V8.99838H30.8284V5.09949C30.8284 3.61934 30.1154 2.30283 29.015 1.4751Z" fill="#5E5E7B"/>
<path d="M27.2015 11.9521V19.7882H2.72015V11.9521C1.13694 12.5139 0 14.0256 0 15.7986V42.9095C0 45.1593 1.83044 46.9897 4.08023 46.9897H25.8415C28.0913 46.9897 29.9217 45.1593 29.9217 42.9095V15.7986C29.9217 14.0256 28.7848 12.5139 27.2015 11.9521ZM9.79255 41.5494H5.44031V38.8293H9.79255V41.5494ZM9.79255 36.1091H5.44031V33.3889H9.79255V36.1091ZM9.79255 30.6688H5.44031V27.9486H9.79255V30.6688ZM17.137 41.5494H12.7847V38.8293H17.137V41.5494ZM17.137 36.1091H12.7847V33.3889H17.137V36.1091ZM17.137 30.6688H12.7847V27.9486H17.137V30.6688ZM24.4814 41.5494H20.1291V38.8293H24.4814V41.5494ZM24.4814 36.1091H20.1291V33.3889H24.4814V36.1091ZM24.4814 30.6688H20.1291V27.9486H24.4814V30.6688ZM24.4814 25.2285H5.44031V22.5083H24.4814V25.2285Z" fill="#5E5E7B"/>
</svg>
