<svg width="39" height="39" viewBox="0 0 39 39" fill="none" xmlns="http://www.w3.org/2000/svg">
<path d="M26.8311 29.791L25.1244 26.7757V21.1958C25.1244 20.8201 24.8194 20.5151 24.4437 20.5151H15.3914C15.0157 20.5151 14.7107 20.8201 14.7107 21.1958V26.7757L13.004 29.791C12.8189 30.1184 12.9736 30.3832 13.3493 30.3832H26.4859C26.8615 30.3832 27.0163 30.1175 26.8311 29.791ZM25.7273 29.7025H21.957L21.5849 28.927C21.5196 28.791 21.3452 28.6819 21.1949 28.6819H18.7449C18.5946 28.6819 18.4202 28.7919 18.3549 28.927L17.9828 29.7025H14.1096C13.9593 29.7025 13.8976 29.596 13.9719 29.4654L14.9755 27.6925C15.0497 27.562 15.2313 27.4555 15.3816 27.4555H24.4554C24.6056 27.4555 24.7872 27.562 24.8615 27.6925L25.8651 29.4654C25.9393 29.596 25.8776 29.7025 25.7273 29.7025Z" fill="#5E5E7B"/>
<path d="M0 19.5C0 30.2697 8.73028 39 19.5 39C30.2697 39 39 30.2697 39 19.5C39 13.9756 37.1171 6.20601 29.5407 2.67275L28.6811 30.9003H28.6775C28.6802 30.9209 28.6811 30.9424 28.6811 30.963C28.6811 32.2788 23.6558 33.3459 17.4579 33.3459C11.2599 33.3459 6.23374 32.2788 6.23374 30.963C6.23374 30.9424 6.23553 30.9209 6.23732 30.9003H6.23374L6.23911 30.8923C6.26326 30.7179 6.37507 30.5488 6.56649 30.386L25.5754 0.96516C23.663 0.339014 21.6208 0 19.5 0C8.73028 0 0 8.73027 0 19.5Z" fill="#5E5E7B"/>
</svg>
