<svg width="39" height="39" viewBox="0 0 39 39" fill="none" xmlns="http://www.w3.org/2000/svg">
<path d="M0 19.5C0 30.2692 8.72977 39 19.4989 39C23.684 39 27.758 37.6537 31.1189 35.16C34.4798 32.6662 36.9494 29.1575 38.1626 25.1522C39.3758 21.1469 39.2683 16.8575 37.856 12.918C36.4437 8.97847 33.8015 5.5978 30.3199 3.27556L29.4735 31.1782C29.4735 31.1998 29.4735 31.2225 29.4735 31.2451C29.4735 32.6281 24.1909 33.7498 17.6733 33.7498C11.1557 33.7498 5.87311 32.6281 5.87311 31.2473C5.87311 31.2246 5.87311 31.203 5.87311 31.1804V31.1717C5.91837 30.9579 6.04102 30.7684 6.21751 30.6395L25.4271 0.9166C23.5112 0.307437 21.5126 -0.00174792 19.5022 7.43234e-06C8.73301 7.43234e-06 0 8.73085 0 19.5Z" fill="#5E5E7B"/>
<path fill-rule="evenodd" clip-rule="evenodd" d="M12.6574 27.2292C12.6574 27.2292 15.8476 31.0169 19.7812 31.0169C23.7155 31.0169 26.9038 27.2292 26.9038 27.2292C26.9038 27.2292 23.7155 23.6095 19.7812 23.6095C15.8476 23.6095 12.6574 27.2292 12.6574 27.2292ZM16.6253 27.3579C16.6253 25.8027 17.8866 24.5411 19.4439 24.5411C21.0012 24.5411 22.2625 25.8027 22.2625 27.3579C22.2625 28.9144 21.0012 30.1746 19.4439 30.1746C17.8866 30.1746 16.6253 28.913 16.6253 27.3579Z" fill="#5E5E7B"/>
<path d="M21.042 27.3111C21.042 28.1718 20.3436 28.8696 19.4821 28.8696C18.6205 28.8696 17.9221 28.1718 17.9221 27.3111C17.9221 26.4503 18.6205 25.7526 19.4821 25.7526C20.3436 25.7526 21.042 26.4503 21.042 27.3111Z" fill="#5E5E7B"/>
</svg>
