<svg width="42" height="51" viewBox="0 0 42 51" fill="none" xmlns="http://www.w3.org/2000/svg">
<path d="M28.7902 41.0988L26.9589 37.8567V31.8574C26.9589 31.4534 26.6316 31.1255 26.2285 31.1255H16.5153C16.1122 31.1255 15.7849 31.4534 15.7849 31.8574V37.8567L13.9536 41.0988C13.7549 41.4508 13.921 41.7354 14.3241 41.7354H28.4197C28.8229 41.7354 28.9889 41.4498 28.7902 41.0988ZM27.6058 41.0036H23.5603L23.161 40.1697C23.0909 40.0235 22.9038 39.9062 22.7425 39.9062H20.1136C19.9524 39.9062 19.7652 40.0245 19.6951 40.1697L19.2959 41.0036H15.1399C14.9787 41.0036 14.9124 40.8891 14.9921 40.7487L16.069 38.8425C16.1487 38.7021 16.3435 38.5877 16.5047 38.5877H26.241C26.4022 38.5877 26.5971 38.7021 26.6767 38.8425L27.7536 40.7487C27.8333 40.8891 27.7671 41.0036 27.6058 41.0036Z" fill="#5E5E7B"/>
<path d="M0 30.0341C0 41.6135 9.36769 51.0001 20.9237 51.0001C32.4798 51.0001 41.8474 41.6135 41.8474 30.0341C41.8474 24.0944 39.8271 15.7407 31.6975 11.9418L30.7752 42.2915H30.7713C30.7742 42.3137 30.7752 42.3367 30.7752 42.3589C30.7752 43.7736 25.383 44.9209 18.7325 44.9209C12.082 44.9209 6.68887 43.7736 6.68887 42.3589C6.68887 42.3367 6.69079 42.3137 6.69271 42.2915H6.68887L6.69463 42.2829C6.72055 42.0953 6.84052 41.9136 7.04592 41.7385L27.4427 10.1058C25.3907 9.43262 23.1994 9.06812 20.9237 9.06812C9.36769 9.06812 0 18.4547 0 30.0341Z" fill="#5E5E7B"/>
<path d="M7.97423 4.96356L6.91844 0.729004H5.80795L4.75984 4.96356L3.7031 0.729004H2.59357L4.20508 7.18903H5.31557L6.36272 2.95352L7.41946 7.18903H8.52995L10.1328 0.729004H9.03097L7.97423 4.96356Z" fill="#5E5E7B"/>
<path d="M11.0286 7.18903H11.5651V7.19769H14.8783V6.11188H12.1026V4.49711H14.3418V3.42092H12.1026V1.80519H14.8783V0.729004H11.0286V7.18903Z" fill="#5E5E7B"/>
<path d="M19.6786 3.7259C19.8456 3.56432 19.9723 3.37486 20.0587 3.15654C20.145 2.93823 20.1882 2.7151 20.1882 2.48813C20.1882 2.08709 20.0625 1.73413 19.812 1.42925C19.6325 1.20805 19.4166 1.0359 19.1632 0.913758C18.9098 0.791617 18.6334 0.730065 18.3349 0.730065H16.1321V7.19009H18.4692C18.833 7.19009 19.166 7.10642 19.4674 6.93908C19.7688 6.77174 20.0107 6.54092 20.193 6.24855C20.3754 5.95522 20.4695 5.62919 20.4752 5.27046C20.4627 4.95981 20.3888 4.66648 20.2516 4.39142C20.1143 4.11444 19.9233 3.89324 19.6786 3.7259ZM17.1984 1.67065H18.0133C18.0488 1.67065 18.1026 1.67065 18.1746 1.67065C18.2466 1.67065 18.3137 1.67354 18.3761 1.67931C18.4385 1.68508 18.5028 1.70335 18.569 1.73316C18.7245 1.79952 18.8435 1.90339 18.9271 2.04765C19.0106 2.19095 19.0528 2.34387 19.0528 2.50544C19.0528 2.66125 19.0106 2.81224 18.9271 2.95842C18.8435 3.10461 18.7236 3.21136 18.569 3.27676C18.5268 3.29503 18.4721 3.30946 18.403 3.32196C18.3339 3.33447 18.2734 3.34024 18.2197 3.34024H17.1984V1.67065ZM19.19 5.79845C19.0912 5.9658 18.9472 6.09178 18.7562 6.17546C18.6909 6.20527 18.6007 6.2245 18.4875 6.23412C18.3742 6.24278 18.2158 6.24759 18.0133 6.24759H17.1984V4.28275H18.0133C18.2283 4.28275 18.3848 4.28755 18.4836 4.29621C18.5825 4.30487 18.6727 4.32506 18.7572 4.35488C18.9482 4.43278 19.0931 4.55396 19.191 4.71842C19.2899 4.88287 19.3388 5.06368 19.3388 5.26084C19.3378 5.45126 19.2889 5.63111 19.19 5.79845Z" fill="#5E5E7B"/>
<path d="M22.8032 0.729004H21.7282V7.19769H22.8032V0.729004Z" fill="#5E5E7B"/>
<path d="M28.3767 4.12011C28.5706 3.76138 28.6676 3.33918 28.6676 2.85542C28.6676 2.2274 28.5015 1.71575 28.1704 1.32144C27.8392 0.927123 27.3747 0.729004 26.7777 0.729004H24.4137V7.18903H25.4436V5.03569H26.4821L27.5302 7.18903H28.6676L27.5484 4.88277C27.9064 4.7337 28.1829 4.47884 28.3767 4.12011ZM27.32 3.77965C27.1376 3.99508 26.8737 4.1028 26.5272 4.1028H25.4436V1.67151H26.5272C26.8679 1.67151 27.1299 1.77634 27.3152 1.986C27.5004 2.19566 27.5926 2.49188 27.5926 2.87465C27.5935 3.26224 27.5024 3.56422 27.32 3.77965Z" fill="#5E5E7B"/>
<path d="M30.9513 0.729004L28.9817 7.18903H30.0471L30.5846 5.43962H32.8056L33.3335 7.18903H34.3989L32.4294 0.729004H30.9513ZM30.9158 4.36247L31.6951 1.80519L32.4745 4.36247H30.9158Z" fill="#5E5E7B"/>
<path d="M36.8701 3.42958L35.4016 0.729004H34.175L36.3154 4.49711V7.18903H37.3807V4.49711L39.548 0.729004H38.401L36.8701 3.42958Z" fill="#5E5E7B"/>
</svg>
