<svg xmlns="http://www.w3.org/2000/svg" xmlns:xlink="http://www.w3.org/1999/xlink"><defs><symbol viewBox="0 0 25 32" id="arrowup"><path d="M24.003 30.626h-24V32h24v-1.374zM11.296 2.629v24.155h1.412V2.629l8.134 7.908 1-.97L12.002 0 2.164 9.567l1 .97 8.132-7.908z" /></symbol><symbol viewBox="0 0 12 9" id="car"><path d="M11.28 3.161l-.023-.026-.407-.393c.337-.076.7-.36.7-.65 0-.337-.468-.457-.869-.457-.418 0-.467.286-.472.49L9.16 1.111a1.482 1.482 0 00-.92-.378H4.147c-.302 0-.706.167-.92.378l-1.05 1.012c-.005-.203-.054-.49-.472-.49-.401 0-.87.12-.87.459 0 .29.364.573.701.65l-.407.392-.023.026c-.436.373-.72 1.063-.72 1.564v1.488c0 .361.142.69.372.934v.577c0 .337.283.613.63.613h.762c.348 0 .63-.275.63-.613v-.148h6.826v.148c0 .338.282.613.63.613h.761c.348 0 .63-.276.63-.613v-.577c.23-.245.373-.573.373-.934V4.725c0-.501-.284-1.191-.72-1.564zm-7.667-1.6c.147-.122.405-.216.534-.216H8.24c.129 0 .387.094.535.217l1.377 1.334H2.235l1.377-1.334zM.858 4.5c0-.367.287-.664.641-.664.354 0 1.51.679 1.51 1.045 0 .366-1.156.282-1.51.282A.652.652 0 01.86 4.5zM2.78 6.924h-.968a1.377 1.377 0 01-.443-.213.628.628 0 01-.12-.122.477.477 0 01-.067-.123c-.09-.255.096-.489.096-.489h1.236l.824.946H2.78zm5.19 0H4.416c-.37 0-.671-.3-.671-.671H8.64c0 .37-.3.671-.67.671zm.156-1.129H4.26c-.403 0-.73-.497-.73-1.11h5.326c0 .613-.327 1.11-.73 1.11zm3.079.671a.48.48 0 01-.068.123.614.614 0 01-.12.122c-.1.078-.242.152-.443.214l-.724-.001h-.802l.824-.946h1.236s.186.233.097.488zm-.318-1.303c-.354 0-1.51.084-1.51-.282s1.156-1.045 1.51-1.045c.354 0 .641.297.641.664a.652.652 0 01-.641.663z" /></symbol><symbol viewBox="0 0 24 23" id="facebook"><path d="M11.807 0C5.557 0 .49 5.071.49 11.324s5.068 11.324 11.318 11.324 11.319-5.071 11.319-11.324C23.126 5.068 18.06 0 11.807 0zm2.718 10.809h-1.744v6.322h-2.613v-6.322H8.86v-2.18h1.308V7.32c0-1.779.738-2.834 2.833-2.834h1.744v2.18h-1.09c-.817 0-.871.304-.871.874l-.003 1.092h1.976l-.232 2.177z" /></symbol><symbol viewBox="0 0 15 15" id="group"><path d="M14.482 3.955a1.15 1.15 0 00-1.148-1.143h-2.155c.283.33.456.756.459 1.223l.02 3.916a1.161 1.161 0 01-.919 1.142v3.022a.582.582 0 101.164 0V7.462h.252v4.653a.582.582 0 101.164 0c0-7.706-.01-3.283-.01-8.168a.102.102 0 11.203.012l.018 3.565a.485.485 0 00.485.482h.002a.485.485 0 00.483-.487l-.018-3.564zM12.036 2.491A1.006 1.006 0 1012.034.48a1.006 1.006 0 00.002 2.012z" /><path d="M11.028 7.954l-.02-3.917a1.264 1.264 0 00-1.261-1.255H6.87c.32.352.517.818.52 1.329l.02 4.22c.003.41-.202.774-.515.993v3.68a.64.64 0 001.28 0V7.891h.275v5.114a.64.64 0 001.28 0c0-8.463-.012-3.614-.012-8.965a.112.112 0 01.223 0v.003l.02 3.916a.533.533 0 001.066-.005zM5.402 2.761H2.318c-.746 0-1.356.607-1.36 1.353l-.02 4.22a.574.574 0 00.557.577h.017a.575.575 0 00.574-.571l.022-4.22a.11.11 0 01.222 0v9.657a.69.69 0 001.379 0v-5.51h.297v5.51a.69.69 0 101.379 0c0-2.465-.012-7.076-.012-9.657a.12.12 0 01.24 0l.021 4.22a.574.574 0 00.575.572h.003a.574.574 0 00.571-.578l-.021-4.22a1.363 1.363 0 00-1.36-1.353zM3.865 2.381A1.191 1.191 0 103.864 0a1.191 1.191 0 00.001 2.382zM8.32 2.43a1.106 1.106 0 100-2.21 1.106 1.106 0 000 2.21z" /></symbol><symbol viewBox="0 0 24 23" id="insta"><path d="M11.72 8.873a2.398 2.398 0 00-2.399 2.4 2.398 2.398 0 104.798 0c0-1.327-1.073-2.4-2.399-2.4z" /><path d="M11.723 0C5.473 0 .404 5.071.404 11.324s5.069 11.324 11.319 11.324c6.25 0 11.319-5.071 11.319-11.324C23.042 5.068 17.973 0 11.723 0zm6.65 15.035a3.134 3.134 0 01-3.124 3.127H8.194a3.134 3.134 0 01-3.125-3.127V7.613a3.134 3.134 0 013.125-3.127h7.055a3.134 3.134 0 013.125 3.127v7.422z" /><path d="M14.505 5.508H8.942c-.757 0-1.471.299-2.01.838a2.83 2.83 0 00-.838 2.011v5.93c0 .757.298 1.472.838 2.012.539.54 1.253.838 2.01.838h5.563c.756 0 1.47-.299 2.01-.838a2.83 2.83 0 00.837-2.011v-5.93a2.83 2.83 0 00-.837-2.012 2.827 2.827 0 00-2.01-.838zm-2.76 9.428a3.666 3.666 0 11.001-7.331 3.666 3.666 0 01-.002 7.33zm3.72-6.518a.868.868 0 11.002-1.737.868.868 0 01-.001 1.737z" /></symbol><symbol viewBox="0 0 61 45" id="interneteq"><path d="M40.48 37.649l-6.228-5.904H5.902V5.903h38.293v3.562l2.073-2.074a5.05 5.05 0 013.595-1.49c.079 0 .154.019.232.023v-.897A5.032 5.032 0 0045.07 0H5.025A5.033 5.033 0 000 5.027v27.595a5.033 5.033 0 005.025 5.027H40.48z" /><path d="M59.669 19.167l-4.501-4.498-16.076 16.08 4.497 4.496a1.139 1.139 0 001.62 0l14.46-14.457a1.145 1.145 0 000-1.621zM49.052 10.173L34.594 24.629a1.145 1.145 0 000 1.622l1.826 1.827L52.5 12l-1.829-1.827a1.13 1.13 0 00-.809-.336c-.294 0-.587.111-.81.336zM30.37 39.428H19.33v1.577h11.04v-1.577zM35.101 42.582H14.599c-.872 0-1.578.706-1.578 1.577h23.657c0-.87-.706-1.577-1.577-1.577z" /></symbol><symbol viewBox="0 0 39 39" id="line"><path d="M0 19.5C0 30.276 8.735 39 19.5 39S39 30.265 39 19.5c0-6.77-3.444-12.73-8.681-16.228l-.842 27.91v.066c0 1.382-5.28 2.504-11.802 2.504-6.521 0-11.801-1.122-11.801-2.505v-.075c.021-.184.14-.356.345-.53L25.428.919A19.51 19.51 0 0019.5 0C8.735 0 0 8.724 0 19.5z" /><path d="M27.181 22.596a1.12 1.12 0 00-1.117-1.112h-2.098c.276.32.445.736.447 1.19l.02 3.812a1.13 1.13 0 01-.895 1.112v2.94a.567.567 0 101.134 0V26.01h.244v4.53a.567.567 0 101.134 0c0-7.5-.01-3.196-.01-7.95a.099.099 0 11.197 0v.012l.018 3.469c0 .26.212.47.472.47h.002a.472.472 0 00.47-.475l-.018-3.469zM24.8 21.172a.98.98 0 100-1.958.98.98 0 000 1.958z" /><path d="M23.82 26.49l-.019-3.813a1.23 1.23 0 00-1.228-1.221h-2.8c.313.342.504.796.507 1.292l.02 4.108c.002.4-.197.754-.502.967v3.582a.623.623 0 101.245 0v-4.977h.27v4.977a.623.623 0 001.244 0c0-8.236-.01-3.518-.01-8.725a.109.109 0 01.216 0v.003l.02 3.811a.519.519 0 001.037-.005zM18.344 21.435h-3.001c-.726 0-1.32.59-1.324 1.316L14 26.86a.559.559 0 00.543.561h.016a.56.56 0 00.56-.555l.02-4.108a.108.108 0 01.216 0v9.4a.671.671 0 001.342 0v-5.364h.29v5.363a.671.671 0 101.341 0c0-2.4-.011-6.886-.012-9.399a.117.117 0 01.234 0l.02 4.108a.56.56 0 00.56.556h.003a.56.56 0 00.556-.562l-.02-4.108a1.327 1.327 0 00-1.324-1.316zM16.848 21.065a1.16 1.16 0 10-.001-2.319 1.16 1.16 0 00.001 2.32zM21.185 21.113a1.076 1.076 0 10-.001-2.152 1.076 1.076 0 000 2.152z" /></symbol><symbol viewBox="0 0 96 97" id="logo"><path d="M0 48.45c0 26.509 21.49 48 48 48s48-21.491 48-48c0-16.656-8.483-31.328-21.363-39.937l-2.093 68.684h-.01c.008.053.01.108.01.162 0 3.405-13.005 6.166-29.047 6.166-16.043 0-29.048-2.76-29.048-6.166 0-.055.003-.109.01-.162h-.01l.014-.022c.062-.45.353-.888.847-1.31l47.271-73.16A47.958 47.958 0 0048 .45c-26.51 0-48 21.49-48 48z" /></symbol><symbol viewBox="0 0 23 23" id="mail"><path d="M11.102 9.57c-.406 0-.743.19-1.017.564-.275.375-.41.868-.41 1.483 0 .496.098.91.294 1.241.194.334.45.5.768.5.468 0 .867-.228 1.204-.68.337-.456.506-.974.509-1.558 0-.47-.138-.845-.409-1.126-.275-.287-.587-.424-.94-.424z" /><path d="M11.283 0C5.052 0 0 5.052 0 11.283c0 6.23 5.052 11.283 11.283 11.283 6.23 0 11.283-5.052 11.283-11.283C22.569 5.052 17.517 0 11.283 0zm5.819 13.791c-.811.974-1.775 1.457-2.89 1.457-.758 0-1.332-.29-1.722-.876-.518.608-1.139.917-1.866.917-.814 0-1.51-.343-2.09-1.033-.58-.686-.868-1.594-.868-2.714 0-1.149.325-2.088.98-2.815C9.298 8 10.081 7.632 11 7.632c.577 0 1.107.2 1.594.596l.122-.443h1.903l-.552 4.521c-.031.31-.05.577-.05.805 0 .284.131.421.393.421.484 0 .952-.302 1.401-.914.45-.608.674-1.376.674-2.296 0-1.345-.49-2.459-1.473-3.345-.98-.886-2.184-1.33-3.61-1.33-1.544 0-2.852.54-3.91 1.617-1.06 1.08-1.594 2.424-1.594 4.034 0 1.486.496 2.777 1.485 3.879.993 1.104 2.394 1.654 4.203 1.654 1.136 0 2.303-.256 3.492-.768a.888.888 0 011.176.48.892.892 0 01-.48 1.152 10.51 10.51 0 01-4.184.877c-2.36 0-4.232-.718-5.626-2.15-1.389-1.432-2.085-3.142-2.085-5.133 0-2.075.73-3.81 2.19-5.205 1.461-1.394 3.23-2.09 5.305-2.09 1.975 0 3.629.611 4.958 1.838 1.333 1.226 1.994 2.708 1.994 4.446-.006 1.373-.412 2.543-1.223 3.513z" /></symbol><symbol viewBox="0 0 11 11" id="moon"><path d="M10.229 7.826a.356.356 0 00-.4-.109 3.787 3.787 0 01-1.271.212 3.925 3.925 0 01-2.322-.754 3.864 3.864 0 01-1.413-1.973 3.827 3.827 0 01.05-2.42c.277-.78.8-1.45 1.492-1.915a.352.352 0 00.147-.37.35.35 0 00-.295-.268 3.478 3.478 0 00-.5-.032c-.928 0-1.84.24-2.645.697a5.298 5.298 0 00-1.946 1.907A5.234 5.234 0 001.07 8.04a5.295 5.295 0 001.905 1.947 5.362 5.362 0 005.289.111 5.301 5.301 0 001.986-1.865.35.35 0 00-.021-.407z" /></symbol><symbol viewBox="0 0 469.333 469.333" id="oneclick"><path d="M438.827 186.347l-80.213-88.149c-15.872-15.872-41.728-15.893-57.749.128-5.077 5.077-8.533 11.157-10.325 17.643-15.957-12.224-38.976-11.008-53.675 3.691a40.64 40.64 0 00-10.347 17.621c-15.957-12.181-38.976-10.987-53.653 3.712-4.971 4.971-8.384 10.901-10.24 17.216l-37.803-37.803c-15.872-15.872-41.728-15.893-57.749.128-15.893 15.872-15.893 41.728 0 57.621L212.31 323.392l-86.144 13.525c-23.275 3.328-40.832 23.552-40.832 47.083 0 17.643 14.357 32 32 32h201.152c31.339 0 60.8-12.203 82.965-34.368l33.557-33.557c22.144-22.123 34.325-51.563 34.325-82.859 0-29.227-10.837-57.237-30.506-78.869zm-18.902 146.645l-33.557 33.557c-18.133 18.133-42.24 28.117-67.883 28.117H117.333c-5.888 0-10.667-4.779-10.667-10.667 0-12.971 9.685-24.128 22.677-25.984l106.987-16.811c3.968-.619 7.232-3.413 8.491-7.232 1.237-3.797.235-8-2.603-10.837L82.155 163.072c-7.573-7.573-7.573-19.904.107-27.605a19.436 19.436 0 0113.739-5.675c4.971 0 9.941 1.899 13.739 5.696l106.731 106.731c4.16 4.16 10.923 4.16 15.083 0 2.069-2.091 3.115-4.821 3.115-7.552s-1.045-5.461-3.136-7.552l-43.584-43.584c-7.573-7.573-7.573-19.883.128-27.584 7.552-7.552 19.904-7.552 27.456 0l43.605 43.605c4.16 4.16 10.923 4.16 15.083 0a10.716 10.716 0 003.115-7.552c0-2.731-1.045-5.461-3.136-7.552l-22.251-22.251c-7.573-7.573-7.573-19.883.128-27.584 7.552-7.552 19.904-7.552 27.456 0l22.357 22.357c.043.021.021.021.021.021l.021.021.021.021.021.021h.021c.021 0 .021.021.021.021 4.181 3.968 10.795 3.883 14.869-.213 4.16-4.16 4.16-10.923 0-15.083l-.917-.917c-3.669-3.669-5.696-8.555-5.696-13.739s2.005-10.048 5.803-13.845c7.595-7.552 19.883-7.531 27.115-.363l79.872 87.787C439.125 218.389 448 241.301 448 265.216c0 25.6-9.963 49.664-28.075 67.776z" /><path d="M183.381 109.931C167.851 75.563 133.547 53.333 96 53.333c-52.928 0-96 43.072-96 96 0 37.547 22.229 71.851 56.597 87.403 1.429.64 2.923.939 4.395.939 4.053 0 7.936-2.347 9.728-6.272 2.411-5.376.021-11.691-5.333-14.123-26.752-12.096-44.053-38.763-44.053-67.947 0-41.173 33.493-74.667 74.667-74.667 29.184 0 55.851 17.301 67.947 44.053 2.411 5.376 8.747 7.787 14.101 5.333 5.375-2.431 7.764-8.745 5.332-14.121z" /></symbol><symbol viewBox="0 0 24 23" id="phone"><path d="M11.85 0C5.62 0 .567 5.053.567 11.284c0 6.232 5.053 11.285 11.285 11.285 6.231 0 11.284-5.053 11.284-11.285C23.135 5.053 18.082 0 11.851 0zm6.835 15.78c-.27.76-1.339 1.394-2.194 1.578-.582.125-1.347.224-3.913-.841-3.284-1.361-5.399-4.698-5.563-4.915-.158-.217-1.328-1.766-1.328-3.37s.815-2.384 1.142-2.72c.27-.275.714-.4 1.141-.4.138 0 .263.006.375.013.329.013.493.033.71.552.27.649.927 2.253 1.003 2.42.08.164.16.387.049.604-.106.223-.198.322-.362.513-.164.19-.322.335-.486.539-.152.177-.322.368-.132.694.19.322.846 1.394 1.812 2.253 1.247 1.11 2.26 1.466 2.62 1.617.27.112.592.085.79-.125.25-.27.558-.717.872-1.157.223-.316.506-.355.802-.243.302.105 1.897.894 2.226 1.058.329.164.545.243.624.381.081.136.081.787-.188 1.55z" /></symbol><symbol viewBox="0 0 45 45" id="platezhy"><path d="M44.167 33.384H.007v1.935a2.612 2.612 0 002.366 2.797h39.428a2.612 2.612 0 002.366-2.797v-1.935zM8.682 20.846a3.95 3.95 0 00-3.155 3.864c.004.444.084.885.237 1.303l2.918-1.75v-3.417zM6.576 27.366a3.905 3.905 0 005.065.63l-2.293-2.292-2.772 1.662zM27.607 39.692h-11.04v1.578h11.04v-1.578zM10.259 20.846v3.537l2.497 2.497a3.936 3.936 0 00-2.497-6.034zM32.338 42.847H11.836c-.871 0-1.577.706-1.577 1.577h23.657c0-.871-.707-1.577-1.578-1.577zM39.435 10.516h-1.577v2.366h1.577v-2.366z" /><path d="M.008 31.807h44.16V3.06A2.61 2.61 0 0041.802.265H2.374A2.61 2.61 0 00.008 3.06v28.747zm9.463-1.577a5.52 5.52 0 115.52-5.52 5.526 5.526 0 01-5.52 5.52zm5.52-13.696a1.093 1.093 0 01-1.104 1.079H5.055a1.09 1.09 0 01-1.104-1.076v-6.021a.789.789 0 011.577 0v5.52h7.886v-5.52a.789.789 0 011.577 0v6.018zm5.52-13.904a.789.789 0 011.577 0v9.463c0 .435.353.789.789.789h.788V4.207c0-.87.706-1.577 1.577-1.577h1.578c.87 0 1.577.706 1.577 1.577v8.675h1.577V7.936c0-.753.61-1.363 1.364-1.364h2.003c.753 0 1.363.611 1.364 1.364v4.945h1.577v-2.7c0-.686.557-1.243 1.244-1.243h2.244c.687 0 1.243.557 1.244 1.243v2.7a.789.789 0 010 1.577H22.876a2.366 2.366 0 01-2.365-2.366V2.63zm0 15.771a.789.789 0 111.577 0v5.983l1.482-1.482a2.423 2.423 0 013.346 0l.923.924a.789.789 0 001.115 0l3.29-3.29a2.423 2.423 0 013.345 0l.924.924a.789.789 0 001.115 0l2.828-2.827a.789.789 0 011.115 1.115l-2.828 2.828a2.37 2.37 0 01-3.345 0l-.924-.925a.805.805 0 00-1.115 0l-3.29 3.29a2.366 2.366 0 01-3.345 0l-.924-.924a.805.805 0 00-1.115 0l-2.597 2.596v1.251c0 .436.353.789.789.789h18.137a.789.789 0 010 1.577H22.875a2.366 2.366 0 01-2.365-2.366v-9.463zM2.637 7.563L3.95 6.386V4.602a.789.789 0 011.577 0v.372l3.174-2.839a1.162 1.162 0 011.524-.012l6.08 5.441a.788.788 0 01-1.053 1.174L9.471 3.562 3.689 8.738a.789.789 0 01-1.052-1.175z" /><path d="M33.127 8.15H31.55v4.732h1.577V8.15zM26.819 4.207H25.24v8.675h1.578V4.207z" /></symbol><symbol viewBox="0 0 15 15" id="run"><path d="M14.087 6.053H11.42V4.18a.983.983 0 00-.149-.52.895.895 0 00-.394-.345.83.83 0 00-.508-.054.864.864 0 00-.45.256l-3.516 3.75a.943.943 0 00-.191.304.99.99 0 00.191 1.023l2.016 2.15-2.456 2.617a.944.944 0 00-.191.304.992.992 0 00.19 1.023.88.88 0 00.286.203.834.834 0 00.96-.203l3.077-3.281a.943.943 0 00.191-.305.991.991 0 00-.191-1.022L8.269 7.93l1.394-1.494v.55a.97.97 0 00.257.662.852.852 0 00.621.274h3.546a.83.83 0 00.347-.06.875.875 0 00.296-.202.942.942 0 00.2-.308.992.992 0 00-.2-1.043.875.875 0 00-.296-.2.83.83 0 00-.347-.062v.006zM8.172 1.29a.838.838 0 00-1.11.117L4.646 3.984a.945.945 0 00-.191.304.992.992 0 00.19 1.023.879.879 0 00.286.203.833.833 0 00.96-.203l1.907-2.034.644.493.858-.915c.145-.152.313-.276.498-.365l-1.625-1.2z" /><path d="M5.781 9.253a1.892 1.892 0 01-.45-.845l-4.643 4.95a.97.97 0 00-.257.664.97.97 0 00.257.663.853.853 0 00.623.275.853.853 0 00.622-.275l4.472-4.767-.624-.665zM11.86 3.241c.73 0 1.32-.63 1.32-1.406 0-.777-.59-1.407-1.32-1.407-.728 0-1.319.63-1.319 1.407s.591 1.406 1.32 1.406z" /></symbol><symbol viewBox="0 0 39 39" id="sport"><path d="M0 19.5C0 30.276 8.735 39 19.5 39S39 30.265 39 19.5c0-6.77-3.444-12.73-8.681-16.228l-.842 27.91v.066c0 1.382-5.28 2.504-11.802 2.504-6.521 0-11.801-1.122-11.801-2.505v-.075c.021-.184.14-.356.345-.53L25.428.919A19.51 19.51 0 0019.5 0C8.735 0 0 8.724 0 19.5z" /><path d="M25.147 24.132h-2.311V22.61c0-.67-.82-1.026-1.306-.54l-3.056 3.056a.756.756 0 000 1.08l1.749 1.748-2.127 2.128a.756.756 0 000 1.08.756.756 0 001.08 0l2.667-2.668a.756.756 0 000-1.08l-1.75-1.748 1.21-1.21v.443a.77.77 0 00.766.767h3.078a.77.77 0 00.766-.767.77.77 0 00-.766-.767zM20.018 20.256a.755.755 0 00-.96.097l-2.106 2.095a.756.756 0 000 1.08.756.756 0 001.08 0l1.651-1.653.562.4.745-.745c.13-.13.27-.227.432-.292l-1.404-.982z" /><path d="M17.945 26.734a1.476 1.476 0 01-.389-.691L13.53 30.07a.756.756 0 000 1.08.756.756 0 001.08 0l3.876-3.876-.54-.54zM23.214 21.843a1.144 1.144 0 100-2.289 1.144 1.144 0 000 2.29z" /></symbol><symbol viewBox="0 0 13 13" id="sun"><path d="M11.991 7.664l-1.216-1.66 1.216-1.66a.212.212 0 00.027-.198.186.186 0 00-.135-.133L9.91 3.37V1.32a.206.206 0 00-.088-.173.2.2 0 00-.2-.027l-1.973.63L6.433.09A.23.23 0 006.16.03a.23.23 0 00-.079.06L4.865 1.75l-1.973-.63a.202.202 0 00-.2.027.21.21 0 00-.087.173V3.37l-1.973.643a.187.187 0 00-.135.133.209.209 0 00.027.198l1.216 1.66-1.216 1.66a.206.206 0 00-.027.198.185.185 0 00.135.134l1.973.643v2.048a.208.208 0 00.087.174.201.201 0 00.2.027l1.973-.629 1.216 1.66a.219.219 0 00.176.087.22.22 0 00.176-.087l1.216-1.66 1.973.63a.201.201 0 00.2-.027.21.21 0 00.088-.175V8.632l1.973-.643a.187.187 0 00.135-.134.207.207 0 00-.027-.198v.007z" /></symbol><symbol viewBox="0 0 41 46" id="terminal"><path d="M5.628 45.02H26.53v-1.608h-1.608a3.216 3.216 0 01-3.216-3.215V20.098a3.216 3.216 0 013.216-3.215h1.608v-1.608H5.628V45.02zm7.235-24.922c0-.444.36-.804.804-.804h4.824c.444 0 .803.36.803.804v1.608c0 .444-.36.804-.803.804h-4.824a.804.804 0 01-.804-.804v-1.608zm-5.628-2.412a.804.804 0 011.608 0v1.608a.804.804 0 01-1.608 0v-1.608zm0 4.824a.804.804 0 011.608 0v20.098a.804.804 0 11-1.608 0V22.51zM.804 10.621v29.713c0 .213.085.418.235.57l2.98 2.98v-29.27L0 3.705V6.06C0 7.96.804 8.4.804 10.621z" /><path d="M27.736 34.569a1.206 1.206 0 100-2.412 1.206 1.206 0 000 2.412zM21.569 10.45l-2.665-7.234H4.96l2.665 7.235h13.943zm-7.334-6.195a.804.804 0 010 1.137l-4.02 4.02A.804.804 0 019.08 8.274l4.02-4.02a.804.804 0 011.136 0zM7.471 5.863l1.608-1.608a.804.804 0 111.136 1.137L8.608 7A.804.804 0 017.47 5.863z" /><path d="M26.18 13.667L21.143 0H.35l5.036 13.667H26.18zM3.807 1.607h15.657c.336 0 .637.21.754.527l3.258 8.843a.804.804 0 01-.754 1.082H7.066a.804.804 0 01-.755-.526L3.055 2.69a.804.804 0 01.752-1.082zM23.314 20.098v20.098c0 .888.72 1.608 1.608 1.608h7.235V18.49h-7.235c-.888 0-1.608.72-1.608 1.608zm4.421 10.451a2.814 2.814 0 011.964 4.824 2.814 2.814 0 11-3.927 0 2.814 2.814 0 011.963-4.824z" /><path d="M27.736 38.589a1.206 1.206 0 100-2.412 1.206 1.206 0 000 2.412zM33.765 18.49h2.412v23.314h-2.412V18.49zM40.196 40.196V20.098c0-.888-.72-1.608-1.607-1.608h-.804v23.314h.804c.888 0 1.607-.72 1.607-1.608z" /></symbol><symbol viewBox="0 0 31 47" id="torgeq"><path d="M24.481 5.1c0-1 .814-1.814 1.814-1.814V.566H9.974A4.539 4.539 0 005.44 5.1v11.968h19.041V5.1zM29.015 1.475v4.531a1.813 1.813 0 00-1.814 1.814v1.178h3.627V5.1c0-1.48-.713-2.796-1.813-3.624z" /><path d="M27.201 11.952v7.836H2.721v-7.836A4.087 4.087 0 000 15.8v27.11c0 2.25 1.83 4.08 4.08 4.08h21.761c2.25 0 4.08-1.83 4.08-4.08V15.8a4.087 4.087 0 00-2.72-3.847zM9.793 41.55H5.44v-2.72h4.353v2.72zm0-5.44H5.44v-2.72h4.353v2.72zm0-5.44H5.44v-2.72h4.353v2.72zm7.344 10.88h-4.352v-2.72h4.352v2.72zm0-5.44h-4.352v-2.72h4.352v2.72zm0-5.44h-4.352v-2.72h4.352v2.72zm7.344 10.88H20.13v-2.72h4.352v2.72zm0-5.44H20.13v-2.72h4.352v2.72zm0-5.44H20.13v-2.72h4.352v2.72zm0-5.44H5.441v-2.72h19.04v2.72z" /></symbol><symbol viewBox="0 0 39 39" id="vebinars"><path d="M26.831 29.791l-1.707-3.015v-5.58a.681.681 0 00-.68-.68H15.39a.681.681 0 00-.68.68v5.58l-1.707 3.015c-.185.327-.03.592.345.592h13.137c.375 0 .53-.265.345-.592zm-1.104-.088h-3.77l-.372-.776a.471.471 0 00-.39-.245h-2.45c-.15 0-.325.11-.39.245l-.372.776H14.11c-.15 0-.212-.107-.138-.238l1.004-1.773a.516.516 0 01.406-.236h9.073c.15 0 .332.106.407.236l1.003 1.773c.074.131.013.238-.138.238z" /><path d="M0 19.5C0 30.27 8.73 39 19.5 39S39 30.27 39 19.5c0-5.524-1.883-13.294-9.46-16.827L28.682 30.9h-.004c.003.02.004.042.004.063 0 1.316-5.025 2.383-11.223 2.383S6.234 32.279 6.234 30.963l.003-.063h-.003l.005-.008c.024-.174.136-.343.327-.506L25.576.966A19.493 19.493 0 0019.5 0C8.73 0 0 8.73 0 19.5z" /></symbol><symbol viewBox="0 0 22 22" id="viber"><path d="M10.867 0C4.948 0 .135 4.814.135 10.732c0 2.018.561 3.979 1.625 5.68a440.464 440.464 0 00-1.195 4.324.412.412 0 00.517.502l4.252-1.309a10.703 10.703 0 005.533 1.535c5.918 0 10.732-4.814 10.732-10.732C21.599 4.814 16.785 0 10.867 0zm5.23 15.144c-.31.662-.762 1.211-1.415 1.56-.185.1-.404.131-.611.194-.239-.072-.468-.122-.678-.21-2.194-.91-4.211-2.084-5.812-3.882-.91-1.023-1.619-2.178-2.221-3.401-.286-.581-.525-1.183-.772-1.78-.223-.546.106-1.11.451-1.522.327-.386.744-.68 1.196-.9.355-.17.703-.072.96.229.559.65 1.07 1.33 1.488 2.08.254.462.185 1.026-.276 1.34-.113.076-.217.167-.32.251a1.093 1.093 0 00-.242.255.69.69 0 00-.047.611c.57 1.57 1.531 2.79 3.113 3.446.254.104.505.226.797.195.486-.057.646-.59.988-.873.333-.273.76-.276 1.12-.05.361.229.71.47 1.055.719.339.241.678.48.991.756.302.273.405.621.236.982zm-2.83-5.112c-.15.003-.072 0-.015-.003-.23-.003-.352-.132-.377-.345-.019-.154-.031-.308-.069-.458a1.283 1.283 0 00-.477-.747 1.26 1.26 0 00-.386-.188c-.176-.05-.358-.038-.533-.082-.192-.047-.295-.2-.267-.38a.344.344 0 01.364-.276c1.11.082 1.908.656 2.02 1.965a.833.833 0 01-.002.279c-.035.147-.139.22-.245.232.012 0 .016 0-.013.003zm-.693-2.993a3.96 3.96 0 00-1.086-.333c-.163-.028-.33-.044-.493-.066-.197-.028-.304-.154-.295-.351a.308.308 0 01.346-.305c.659.038 1.292.179 1.88.49 1.188.63 1.87 1.625 2.067 2.953.01.06.022.119.028.178.013.151.02.299.029.496-.004.035-.007.12-.029.201-.075.289-.511.323-.612.035a.825.825 0 01-.034-.277c0-.608-.132-1.214-.44-1.741a3.228 3.228 0 00-1.361-1.28zm3.678 4.104c-.23.003-.333-.188-.349-.395-.028-.408-.05-.82-.107-1.224-.298-2.137-2.002-3.904-4.126-4.284-.32-.056-.646-.072-.973-.106-.204-.022-.474-.035-.517-.289-.038-.213.14-.383.345-.395.056-.003.11 0 .166 0 2.777.078.122.006.003 0 2.868.081 5.222 1.986 5.727 4.82.085.483.116.976.154 1.468.015.207-.1.402-.323.405z" /></symbol><symbol viewBox="0 0 39 39" id="vision"><path d="M0 19.5C0 30.27 8.73 39 19.499 39a19.5 19.5 0 0010.82-35.724l-.845 27.902v.067c0 1.383-5.283 2.505-11.8 2.505-6.518 0-11.8-1.122-11.8-2.503V31.172a.886.886 0 01.344-.532L25.428.917A19.498 19.498 0 0019.501 0C8.733 0 0 8.73 0 19.5z" /><path fill-rule="evenodd" clip-rule="evenodd" d="M12.657 27.23s3.19 3.787 7.124 3.787c3.934 0 7.123-3.788 7.123-3.788s-3.189-3.62-7.123-3.62c-3.933 0-7.124 3.62-7.124 3.62zm3.968.128a2.818 2.818 0 012.819-2.817 2.818 2.818 0 11-2.819 2.817z" /><path d="M21.042 27.311a1.56 1.56 0 11-3.118-.001 1.56 1.56 0 013.118.001z" /></symbol><symbol viewBox="0 0 23 23" id="vk"><path d="M11.636 0C5.386 0 .316 5.071.316 11.324s5.07 11.324 11.32 11.324 11.318-5.071 11.318-11.324S17.886 0 11.636 0zm4.939 16.57h-.076c-.831-.136-1.398-.724-1.883-1.27-.274-.307-.69-1.003-1.19-.922-.709.115-.359 1.327-.654 1.845-.238.42-1.257.344-1.96.269-2.214-.236-3.347-1.417-4.339-2.69-1.06-1.36-1.886-2.78-2.651-4.344-.248-.507-.576-1.064-.576-1.692.359-.292.946-.193 1.537-.193.5 0 1.284-.111 1.651.076.217.111.44.7.615 1.076.404.862.778 1.484 1.269 2.192.214.308.54.883.922.808.37-.075.407-.989.422-1.577.018-.666 0-1.492-.193-1.845-.18-.332-.512-.34-.844-.537.277-.56 1.04-.615 1.959-.615.771 0 1.85-.087 2.152.422.307.519.096 1.454.075 2.153-.021.787-.157 1.598.383 1.96.418-.045.641-.452.882-.769.53-.693.86-1.296 1.27-2.192.168-.368.349-.998.653-1.115.464-.175 1.202-.04 1.884-.04.557 0 1.549-.153 1.73.23.147.32-.287 1.124-.423 1.344-.515.844-1.018 1.381-1.576 2.114-.223.292-.68.763-.654 1.23.022.356.377.627.654.883.597.555 1.016.959 1.498 1.577.18.232.576.736.537 1.037-.118.95-2.33.359-3.074.585z" /></symbol><symbol viewBox="0 0 42 51" id="webiray"><path d="M28.79 41.099l-1.831-3.242v-6a.731.731 0 00-.73-.732h-9.714a.731.731 0 00-.73.732v6l-1.831 3.242c-.2.352-.033.636.37.636H28.42c.403 0 .569-.285.37-.636zm-1.184-.095H23.56l-.399-.834a.505.505 0 00-.419-.264h-2.628a.508.508 0 00-.419.264l-.4.834H15.14c-.161 0-.228-.115-.148-.255l1.077-1.907a.554.554 0 01.436-.254h9.736c.161 0 .356.114.436.255l1.077 1.906c.08.14.013.255-.148.255z" /><path d="M0 30.034C0 41.614 9.368 51 20.924 51s20.923-9.386 20.923-20.966c0-5.94-2.02-14.293-10.15-18.092l-.922 30.35h-.004a.525.525 0 01.004.067c0 1.415-5.392 2.562-12.042 2.562-6.651 0-12.044-1.147-12.044-2.562 0-.022.002-.045.004-.068h-.004l.006-.008c.026-.188.146-.37.35-.544l20.398-31.633a20.878 20.878 0 00-6.52-1.038C9.369 9.068 0 18.455 0 30.034zM7.974 4.964L6.918.729h-1.11L4.76 4.964 3.703.729h-1.11l1.612 6.46h1.11l1.048-4.235 1.056 4.235h1.11l1.604-6.46H9.03L7.974 4.964zM11.029 7.189h.536v.009h3.313V6.112h-2.775V4.497h2.239V3.421h-2.24V1.805h2.776V.73h-3.85v6.46zM19.679 3.726c.167-.162.293-.351.38-.57.086-.218.13-.44.13-.668a1.62 1.62 0 00-.377-1.059A1.876 1.876 0 0018.335.73h-2.203v6.46h2.337c.364 0 .697-.084.998-.25a1.97 1.97 0 00.726-.691c.182-.294.276-.62.282-.979a2.14 2.14 0 00-.223-.879 1.71 1.71 0 00-.573-.665zm-2.48-2.055h.976c.072 0 .139.003.201.008a.607.607 0 01.193.054c.155.067.274.17.358.315a.896.896 0 01.126.457.902.902 0 01-.126.453.732.732 0 01-.524.364c-.07.012-.13.018-.183.018h-1.022V1.67zm1.991 4.127a.913.913 0 01-.434.377.837.837 0 01-.268.06 6.574 6.574 0 01-.475.013h-.815V4.283h.815c.215 0 .372.005.47.013a.87.87 0 01.707.422 1.05 1.05 0 01-.001 1.08zM22.803.729h-1.075v6.469h1.075V.729zM28.377 4.12c.194-.359.29-.78.29-1.265 0-.628-.166-1.14-.497-1.534-.33-.394-.795-.592-1.392-.592h-2.364v6.46h1.03V5.036h1.038l1.048 2.153h1.138l-1.12-2.306c.358-.15.635-.404.829-.763zm-1.057-.34c-.182.215-.446.323-.793.323h-1.083V1.672h1.083c.34 0 .603.104.788.314.185.21.278.506.278.889 0 .387-.09.69-.273.905zM30.951.729l-1.97 6.46h1.066l.538-1.75h2.22l.529 1.75h1.065l-1.97-6.46h-1.478zm-.035 3.633l.78-2.557.778 2.557h-1.558zM36.87 3.43L35.402.729h-1.227l2.14 3.768V7.19h1.066V4.497L39.548.73h-1.147l-1.53 2.7z" /></symbol><symbol viewBox="0 0 42 51" id="webiraycolor"><path d="M28.79 41.099l-1.831-3.242v-6a.731.731 0 00-.73-.732h-9.714a.731.731 0 00-.73.732v6l-1.831 3.242c-.2.352-.033.636.37.636H28.42c.403 0 .569-.285.37-.636zm-1.184-.095H23.56l-.399-.834a.505.505 0 00-.419-.264h-2.628a.508.508 0 00-.419.264l-.4.834H15.14c-.161 0-.228-.115-.148-.255l1.077-1.907a.554.554 0 01.436-.254h9.736c.161 0 .356.114.436.255l1.077 1.906c.08.14.013.255-.148.255z" /><path d="M0 30.034C0 41.614 9.368 51 20.924 51s20.923-9.386 20.923-20.966c0-5.94-2.02-14.293-10.15-18.092l-.922 30.35h-.004a.525.525 0 01.004.067c0 1.415-5.392 2.562-12.042 2.562-6.651 0-12.044-1.147-12.044-2.562 0-.022.002-.045.004-.068h-.004l.006-.008c.026-.188.146-.37.35-.544l20.398-31.633a20.878 20.878 0 00-6.52-1.038C9.369 9.068 0 18.455 0 30.034zM7.974 4.964L6.918.729h-1.11L4.76 4.964 3.703.729h-1.11l1.612 6.46h1.11l1.048-4.235 1.056 4.235h1.11l1.604-6.46H9.03L7.974 4.964zM11.029 7.189h.536v.009h3.313V6.112h-2.775V4.497h2.239V3.421h-2.24V1.805h2.776V.73h-3.85v6.46zM19.679 3.726c.167-.162.293-.351.38-.57.086-.218.13-.44.13-.668a1.62 1.62 0 00-.377-1.059A1.876 1.876 0 0018.335.73h-2.203v6.46h2.337c.364 0 .697-.084.998-.25a1.97 1.97 0 00.726-.691c.182-.294.276-.62.282-.979a2.14 2.14 0 00-.223-.879 1.71 1.71 0 00-.573-.665zm-2.48-2.055h.976c.072 0 .139.003.201.008a.607.607 0 01.193.054c.155.067.274.17.358.315a.896.896 0 01.126.457.902.902 0 01-.126.453.732.732 0 01-.524.364c-.07.012-.13.018-.183.018h-1.022V1.67zm1.991 4.127a.913.913 0 01-.434.377.837.837 0 01-.268.06 6.574 6.574 0 01-.475.013h-.815V4.283h.815c.215 0 .372.005.47.013a.87.87 0 01.707.422 1.05 1.05 0 01-.001 1.08zM22.803.729h-1.075v6.469h1.075V.729zM28.377 4.12c.194-.359.29-.78.29-1.265 0-.628-.166-1.14-.497-1.534-.33-.394-.795-.592-1.392-.592h-2.364v6.46h1.03V5.036h1.038l1.048 2.153h1.138l-1.12-2.306c.358-.15.635-.404.829-.763zm-1.057-.34c-.182.215-.446.323-.793.323h-1.083V1.672h1.083c.34 0 .603.104.788.314.185.21.278.506.278.889 0 .387-.09.69-.273.905zM30.951.729l-1.97 6.46h1.066l.538-1.75h2.22l.529 1.75h1.065l-1.97-6.46h-1.478zm-.035 3.633l.78-2.557.778 2.557h-1.558zM36.87 3.43L35.402.729h-1.227l2.14 3.768V7.19h1.066V4.497L39.548.73h-1.147l-1.53 2.7z" /></symbol><symbol viewBox="0 0 23 22" id="whatsup"><path d="M11.332 0C5.413 0 .6 4.814.6 10.732c0 2.018.561 3.979 1.625 5.68a440.593 440.593 0 00-1.195 4.324.412.412 0 00.517.502L5.8 19.929a10.703 10.703 0 005.533 1.535c5.918 0 10.732-4.814 10.732-10.732C22.064 4.814 17.25 0 11.332 0zm6.724 15.2c-.273.776-1.362 1.416-2.228 1.604-.593.126-1.368.226-3.979-.854-3.338-1.383-5.488-4.772-5.654-4.995-.16-.22-1.35-1.795-1.35-3.427 0-1.632.829-2.422 1.161-2.765.273-.279.728-.407 1.161-.407.142 0 .267.006.38.012.333.016.502.035.722.562.273.659.941 2.29 1.02 2.457.081.166.163.395.047.615-.107.226-.201.33-.367.52-.167.195-.327.343-.493.55-.154.179-.326.373-.135.706.195.326.86 1.415 1.842 2.29 1.268 1.13 2.297 1.491 2.664 1.642.273.113.6.088.8-.126.255-.273.568-.728.888-1.176.226-.32.515-.361.816-.248.308.106 1.93.91 2.263 1.073.332.166.552.248.634.389.084.144.084.803-.192 1.579z" /></symbol><symbol viewBox="0 0 26 18" id="youtube"><path d="M18.467 0H6.533C0 0 0 1.863 0 6.443v4.474c0 4.354.925 6.44 6.533 6.44H18.47c5.065 0 6.533-1.218 6.533-6.44V6.443C25 1.622 24.753 0 18.467 0zm-1.784 8.556l-.205.106-.621.325h-.003l-5.91 3.094V5.056l.007.003-.006-.003 6.738 3.5z" /></symbol></defs></svg>